<svg xmlns="http://www.w3.org/2000/svg" viewBox="0 0 64 64">
  <defs>
    <linearGradient id="g" x1="0" y1="0" x2="1" y2="1">
      <stop offset="0" stop-color="#4f46e5"/>
      <stop offset="1" stop-color="#7c3aed"/>
    </linearGradient>
  </defs>
  <rect width="64" height="64" rx="14" fill="url(#g)"/>
  <!-- إيصال -->
  <path d="M20 12h24a3 3 0 0 1 3 3v37l-4.5-3-4.5 3-4.5-3-4.5 3-4.5-3-4.5 3V15a3 3 0 0 1 3-3z" fill="#fff" opacity=".95"/>
  <rect x="25" y="20" width="14" height="3" rx="1.5" fill="#4f46e5"/>
  <rect x="25" y="27" width="14" height="3" rx="1.5" fill="#8b8bf0"/>
  <rect x="25" y="34" width="9" height="3" rx="1.5" fill="#8b8bf0"/>
  <!-- علامة صح -->
  <circle cx="44" cy="44" r="11" fill="#10b981" stroke="#fff" stroke-width="3"/>
  <path d="M39.5 44.2l3.2 3.2 6-6.4" fill="none" stroke="#fff" stroke-width="3" stroke-linecap="round" stroke-linejoin="round"/>
</svg>
